<?xml version="1.0" encoding="UTF-8" standalone="no"?>
<!-- Created with Inkscape (http://www.inkscape.org/) -->

<svg
   version="1.1"
   id="svg9"
   width="181.85385"
   height="181.45125"
   viewBox="0 0 181.85385 181.45125"
   sodipodi:docname="home.svg"
   inkscape:version="1.1.1 (3bf5ae0d25, 2021-09-20)"
   xmlns:inkscape="http://www.inkscape.org/namespaces/inkscape"
   xmlns:sodipodi="http://sodipodi.sourceforge.net/DTD/sodipodi-0.dtd"
   xmlns:xlink="http://www.w3.org/1999/xlink"
   xmlns="http://www.w3.org/2000/svg"
   xmlns:svg="http://www.w3.org/2000/svg">
  <defs
     id="defs13">
    <color-profile
       name="sRGB-IEC61966-2.1"
       xlink:href="file:///C:/WINDOWS/system32/spool/drivers/color/sRGB%20Color%20Space%20Profile.icm"
       id="color-profile12632" />
    <color-profile
       name="Agfa-:-Swop-Standard"
       xlink:href="file:///C:/WINDOWS/system32/spool/drivers/color/RSWOP.icm"
       id="color-profile12634" />
  </defs>
  <sodipodi:namedview
     id="namedview11"
     pagecolor="#ffffff"
     bordercolor="#eeeeee"
     borderopacity="1"
     inkscape:pageshadow="0"
     inkscape:pageopacity="0"
     inkscape:pagecheckerboard="true"
     showgrid="false"
     fit-margin-top="0"
     fit-margin-left="0"
     fit-margin-right="0"
     fit-margin-bottom="0"
     inkscape:zoom="3.5955556"
     inkscape:cx="117.50618"
     inkscape:cy="81.07231"
     inkscape:window-width="1920"
     inkscape:window-height="1017"
     inkscape:window-x="1912"
     inkscape:window-y="-8"
     inkscape:window-maximized="1"
     inkscape:current-layer="g15" />
  <g
     inkscape:groupmode="layer"
     inkscape:label="Image"
     id="g15"
     transform="translate(-212.06576,-31.458954)">
    <path
       style="fill:#ffffff;stroke:none;stroke-width:0.278121"
       d="m 301.13294,31.460344 c -7.42807,0.03454 -14.90357,-0.03516 -21.97554,2.307006 -13.34857,3.693421 -26.07497,10.231875 -36.31784,19.758209 -13.4595,12.042742 -23.93443,27.575671 -28.31147,45.175457 -2.20927,8.184374 -2.6132,16.816824 -2.41938,25.291614 0.12072,6.82286 0.18854,13.72114 2.10133,20.33717 5.42739,22.69617 20.58591,42.32785 39.87063,55.00568 11.10038,7.18039 23.87056,11.92381 36.9242,13.37145 9.8434,0.37861 19.70356,0.27735 29.50638,-0.7237 15.84013,-3.02081 30.80302,-10.47224 42.78611,-21.38327 10.35302,-9.29432 19.10014,-20.55039 24.21175,-33.49242 3.77894,-8.78967 6.0606,-18.24591 6.29032,-27.77517 0.23326,-10.9841 0.48562,-22.48303 -2.98121,-33.171428 -3.52929,-11.534719 -9.15431,-22.614111 -17.05038,-31.758328 -7.73153,-8.71372 -16.34776,-16.936112 -26.73893,-22.47416 -8.71777,-4.724934 -18.3009,-8.361155 -28.20811,-9.876559 -5.7996,-0.649746 -11.79578,-0.591693 -17.68786,-0.591551 z m 2.03539,23.624544 c 2.83748,0.537875 4.70848,3.112349 6.86829,4.824749 20.35599,18.846512 40.71223,37.714021 60.88843,56.738883 1.46631,1.37703 2.03939,3.6743 0.71377,5.35438 -1.4761,2.67642 -5.03458,2.02957 -7.58164,2.31975 -3.82749,0.14321 -7.6308,0.23805 -11.44901,0.42561 -0.38368,17.25639 -0.29134,34.52704 -0.86059,51.7764 0.13161,2.09326 -1.53074,3.83435 -3.59695,3.9141 -7.50818,0.66622 -15.07325,0.35382 -22.60494,0.46654 -2.86835,-0.29795 -6.19871,0.65938 -8.72172,-1.11459 -2.45143,-2.35137 -1.51634,-6.15877 -1.84243,-9.18112 -0.2886,-12.13813 -0.33298,-24.31433 -0.67424,-36.42803 -7.53262,-0.11701 -15.06804,-0.11436 -22.6006,0.007 -0.46798,14.03963 -0.23032,28.15229 -0.91476,42.20488 0.20447,2.44375 -2.04682,4.31916 -4.38059,4.21751 -8.97628,0.315 -17.96965,0.3828 -26.95058,0.27078 -1.96917,0.0813 -4.20286,-0.64348 -4.75776,-2.76578 -0.92799,-3.64105 -0.45304,-7.49978 -0.6946,-11.22685 -0.26969,-14.0647 -0.25515,-28.15467 -0.72534,-42.19903 -4.24615,-0.40231 -8.635,-0.1074 -12.81801,-1.06794 -2.3988,-0.94365 -3.51817,-4.67126 -1.14408,-6.28907 17.9994,-18.646282 36.41191,-36.891877 54.85808,-55.095258 2.55981,-2.229447 4.66561,-5.090716 7.60899,-6.825425 0.42816,-0.209418 0.89927,-0.351076 1.38028,-0.327009 z"
       id="path12015" />
  </g>
</svg>
