<?xml version="1.0" encoding="UTF-8" standalone="no"?>
<!-- Created with Inkscape (http://www.inkscape.org/) -->

<svg
   width="300"
   height="300"
   id="svg2985"
   version="1.1"
   inkscape:version="1.1.1 (3bf5ae0d25, 2021-09-20)"
   sodipodi:docname="menu_mini.svg"
   xmlns:inkscape="http://www.inkscape.org/namespaces/inkscape"
   xmlns:sodipodi="http://sodipodi.sourceforge.net/DTD/sodipodi-0.dtd"
   xmlns="http://www.w3.org/2000/svg"
   xmlns:svg="http://www.w3.org/2000/svg"
   xmlns:rdf="http://www.w3.org/1999/02/22-rdf-syntax-ns#"
   xmlns:cc="http://creativecommons.org/ns#"
   xmlns:dc="http://purl.org/dc/elements/1.1/">
  <defs
     id="defs2987" />
  <sodipodi:namedview
     id="base"
     pagecolor="#ffffff"
     bordercolor="#666666"
     borderopacity="1.0"
     inkscape:pageopacity="0.0"
     inkscape:pageshadow="2"
     inkscape:zoom="2.5722563"
     inkscape:cx="37.904465"
     inkscape:cy="153.3673"
     inkscape:current-layer="layer1"
     showgrid="true"
     inkscape:document-units="px"
     inkscape:grid-bbox="true"
     inkscape:window-width="1920"
     inkscape:window-height="1017"
     inkscape:window-x="1912"
     inkscape:window-y="-8"
     inkscape:window-maximized="1"
     inkscape:pagecheckerboard="true" />
  <metadata
     id="metadata2990">
    <rdf:RDF>
      <cc:Work
         rdf:about="">
        <dc:format>image/svg+xml</dc:format>
        <dc:type
           rdf:resource="http://purl.org/dc/dcmitype/StillImage" />
      </cc:Work>
    </rdf:RDF>
  </metadata>
  <g
     id="layer1"
     inkscape:label="Layer 1"
     inkscape:groupmode="layer"
     transform="translate(0,236)">
    <g
       id="g2987"
       transform="matrix(1.5873,0,0,1.5873,99.2064,-136.7936)" />
    <path
       style="fill:#ffffff;stroke-width:0.727273"
       d="M 149.0483,1.9502841 C 104.51988,1.8810241 60.6262,23.280614 33.407671,58.653409 7.4454284,91.703847 -3.7062667,135.9293 4.2798295,176.89489 12.210597,221.03098 41.264824,260.65774 81.208938,281.1695 c 23.121432,12.04558 49.209672,18.28627 75.194012,16.6171 29.87429,-0.5656 59.03965,-11.84432 82.90355,-29.48066 20.05255,-15.53114 36.53862,-35.7963 46.51874,-59.20046 14.18688,-31.79877 15.94901,-68.90234 5.98366,-102.0933 C 278.64332,63.051682 244.04319,26.212308 200.88148,10.868133 184.29924,4.6460317 166.63846,1.7198795 149.0483,1.9502841 Z m 0.76988,68.6491479 c 26.06061,0 52.12122,0 78.18182,0 3.1202,2.639899 0.57719,8.436568 1.40057,12.309659 -0.30613,5.412647 0.62366,11.095105 -0.4858,16.332385 -17.15138,0.797214 -34.56996,0.112335 -51.82386,0.340909 -35.15151,0 -70.30303,0 -105.454546,0 -3.120203,-2.639898 -0.577192,-8.436567 -1.400568,-12.309658 0.306133,-5.412647 -0.623666,-11.095105 0.485795,-16.332386 17.151384,-0.797216 34.569969,-0.112332 51.823859,-0.340909 9.09091,0 18.18182,0 27.27273,0 z m 0,64.727278 c 26.06061,0 52.12122,0 78.18182,0 3.1202,2.63989 0.57719,8.43656 1.40057,12.30965 -0.31675,5.65276 0.64613,11.58485 -0.4858,17.05966 -17.15138,0.79722 -34.56996,0.11234 -51.82386,0.34091 -35.07545,-0.1119 -70.16996,0.25794 -105.232954,-0.50994 -2.749555,-2.16122 -0.87328,-6.68278 -1.583808,-9.74006 0.201491,-6.3474 -0.636003,-12.95103 0.447443,-19.11932 17.151384,-0.79721 34.569969,-0.11233 51.823859,-0.3409 9.09091,0 18.18182,0 27.27273,0 z m 79.23863,65.20312 c 0.80556,9.15276 0.10981,18.57749 0.34376,27.83381 -2.6399,3.1202 -8.43657,0.57719 -12.30966,1.40056 -47.52088,-0.2199 -95.05716,0.49271 -142.568183,-0.52272 -2.845505,0.52214 -4.846618,-1.59347 -4.129261,-4.42614 0.135015,-7.99576 -0.471981,-16.26572 0.708807,-24.07102 18.606658,-0.80306 37.464447,-0.19567 56.167457,-0.45756 33.57581,-0.0793 67.15162,-0.15992 100.72743,-0.23989 l 0.66178,0.30162 z"
       id="path183"
       transform="translate(0,-236)" />
  </g>
</svg>
