<?xml version="1.0" encoding="UTF-8" standalone="no"?>
<!-- Created with Inkscape (http://www.inkscape.org/) -->

<svg
   width="434.2691"
   height="327.91095"
   viewBox="0 0 114.90037 86.759774"
   version="1.1"
   id="svg201"
   inkscape:version="1.1.1 (3bf5ae0d25, 2021-09-20)"
   sodipodi:docname="white_arrow.svg"
   xmlns:inkscape="http://www.inkscape.org/namespaces/inkscape"
   xmlns:sodipodi="http://sodipodi.sourceforge.net/DTD/sodipodi-0.dtd"
   xmlns="http://www.w3.org/2000/svg"
   xmlns:svg="http://www.w3.org/2000/svg">
  <sodipodi:namedview
     id="namedview203"
     pagecolor="#505050"
     bordercolor="#eeeeee"
     borderopacity="1"
     inkscape:pageshadow="0"
     inkscape:pageopacity="0"
     inkscape:pagecheckerboard="0"
     inkscape:document-units="mm"
     showgrid="false"
     inkscape:zoom="0.74118967"
     inkscape:cx="-262.41596"
     inkscape:cy="-81.62553"
     inkscape:window-width="1920"
     inkscape:window-height="1017"
     inkscape:window-x="1912"
     inkscape:window-y="-8"
     inkscape:window-maximized="1"
     inkscape:current-layer="layer1"
     showguides="true"
     inkscape:guide-bbox="true"
     inkscape:lockguides="false"
     width="209mm"
     units="px"
     fit-margin-top="0"
     fit-margin-left="0"
     fit-margin-right="0"
     fit-margin-bottom="0">
    <sodipodi:guide
       position="359.44778,245.24526"
       orientation="-0.70710678,-0.70710678"
       id="guide223"
       inkscape:locked="false" />
    <sodipodi:guide
       position="-33.220488,93.889474"
       orientation="0.70710678,-0.70710678"
       id="guide225"
       inkscape:locked="false" />
    <sodipodi:guide
       position="109.92494,105.66952"
       orientation="0,-1"
       id="guide227"
       inkscape:locked="false" />
    <sodipodi:guide
       position="25.32278,-36.404997"
       orientation="-0.70710678,-0.70710678"
       id="guide229"
       inkscape:locked="false" />
    <sodipodi:guide
       position="171.32398,226.32579"
       orientation="-0.70710678,-0.70710678"
       id="guide249"
       inkscape:locked="false" />
  </sodipodi:namedview>
  <defs
     id="defs198" />
  <g
     inkscape:label="Calque 1"
     inkscape:groupmode="layer"
     id="layer1"
     transform="translate(-53.210872,-170.26552)">
    <path
       d="m 85.51726,236.57778 c 20.16555,0 32.3871,0.0379 32.49086,0.0947 0.14989,0.0757 0.17295,1.33476 0.20754,10.22374 0.0231,5.56626 0.0576,10.12907 0.0807,10.12907 0.0922,0 3.7587,-3.16178 19.60059,-16.9449 9.31605,-8.09379 19.90037,-17.29515 23.50918,-20.43801 3.62034,-3.14285 6.62961,-5.77451 6.68726,-5.85025 0.0692,-0.10413 -0.0576,-0.27452 -0.47272,-0.63425 -0.32283,-0.26506 -11.20693,-9.73148 -24.20097,-21.02492 -12.99403,-11.30291 -23.97037,-20.84507 -24.39697,-21.2048 l -0.77249,-0.66264 -0.0115,10.10067 c 0,5.54732 -0.0346,10.15747 -0.0692,10.24267 -0.0692,0.14199 -3.03233,0.15146 -32.513923,0.15146 H 53.210872 v 22.90875 22.90874 z"
       id="path19"
       style="fill:#ffffff;stroke-width:0.0104472;image-rendering:auto" />
  </g>
</svg>
